<?xml version="1.0" standalone="no"?>
<!DOCTYPE svg PUBLIC "-//W3C//DTD SVG 20010904//EN"
 "http://www.w3.org/TR/2001/REC-SVG-20010904/DTD/svg10.dtd">
<svg version="1.0" xmlns="http://www.w3.org/2000/svg"
 width="130.000000pt" height="46.000000pt" viewBox="0 0 130.000000 46.000000"
 preserveAspectRatio="xMidYMid meet">

<g transform="translate(0.000000,46.000000) scale(0.100000,-0.100000)"
fill="#000000" stroke="none">
<path d="M162 375 c0 -16 2 -22 5 -12 2 9 2 23 0 30 -3 6 -5 -1 -5 -18z"/>
<path d="M320 391 c0 -5 -20 -36 -45 -70 -25 -34 -45 -66 -45 -72 0 -6 16 -38
36 -72 20 -34 37 -68 37 -75 0 -7 6 -11 14 -8 7 3 13 1 13 -4 0 -5 -12 -12
-27 -16 -47 -10 -54 -14 -49 -23 5 -7 93 3 102 12 2 1 -17 36 -40 77 -42 72
-43 75 -27 99 l16 25 6 -34 c7 -35 7 -35 6 6 0 24 8 58 21 82 33 63 8 50 -46
-23 -26 -36 -48 -61 -50 -55 -2 6 13 35 35 66 21 30 44 63 52 74 9 13 10 20 2
20 -6 0 -11 -4 -11 -9z"/>
<path d="M681 381 c-1 -23 0 -24 19 -6 23 20 28 34 6 16 -11 -9 -15 -9 -19 1
-3 7 -6 2 -6 -11z"/>
<path d="M797 380 c12 -14 26 -41 32 -60 l11 -35 -5 35 c-3 20 -17 46 -32 60
l-27 25 21 -25z"/>
<path d="M964 386 c-3 -8 -4 -23 -1 -33 3 -12 5 -9 6 9 1 22 6 27 34 31 l32 4
-33 1 c-20 1 -35 -3 -38 -12z"/>
<path d="M1062 289 c-2 -102 -5 -120 -25 -150 -29 -43 -62 -60 -110 -57 -48 4
-43 -13 9 -30 49 -17 99 -8 130 23 12 12 25 21 27 19 2 -2 3 6 1 19 -1 12 -3
74 -5 137 l-3 115 -5 -117 c-6 -115 -7 -118 -37 -149 -25 -25 -42 -32 -80 -35
l-49 -3 42 10 c52 12 100 58 108 102 3 18 4 77 3 132 l-4 100 -2 -116z"/>
<path d="M189 360 c-12 -16 -26 -27 -31 -24 -4 3 -8 -6 -8 -20 0 -14 2 -26 4
-26 1 0 17 23 34 50 34 55 35 66 1 20z"/>
<path d="M1098 383 c6 -2 18 -2 25 0 6 3 1 5 -13 5 -14 0 -19 -2 -12 -5z"/>
<path d="M550 324 c6 -14 10 -43 10 -65 0 -21 5 -39 10 -39 14 0 12 104 -2
118 -20 20 -28 14 -18 -14z"/>
<path d="M845 333 c4 -10 8 -43 10 -73 2 -49 2 -50 -5 -15 -5 31 -7 20 -8 -52
l-2 -93 -59 0 -59 0 6 109 c3 77 1 110 -7 115 -23 14 -41 -15 -39 -63 l1 -46
6 49 c4 29 12 51 20 54 11 4 12 0 5 -14 -4 -11 -10 -65 -12 -122 l-3 -102 -27
-1 c-15 0 -36 -4 -47 -9 -14 -6 -4 -9 38 -9 43 -1 57 3 57 13 0 11 17 15 66
18 36 1 68 0 71 -4 2 -5 -19 -8 -46 -8 -28 0 -51 -4 -51 -10 0 -6 27 -10 60
-10 46 0 60 3 60 15 0 7 -7 18 -16 23 -13 7 -15 18 -9 51 5 31 10 40 18 32 18
-18 29 -13 17 8 -5 11 -10 36 -10 56 0 36 -23 105 -36 105 -3 0 -3 -8 1 -17z"/>
<path d="M1194 260 c0 -52 1 -74 3 -47 2 26 2 68 0 95 -2 26 -3 4 -3 -48z"/>
<path d="M1216 289 c-3 -34 -6 -95 -6 -135 l0 -73 -35 -7 c-50 -9 -44 -23 8
-17 23 3 43 7 44 7 2 1 6 66 9 144 5 94 4 142 -3 142 -6 0 -13 -28 -17 -61z"/>
<path d="M426 291 c-24 -26 -14 -39 24 -33 25 4 30 9 28 26 -4 28 -30 31 -52
7z m30 -6 c-8 -8 -20 -15 -27 -15 -9 0 -8 4 1 15 7 8 19 15 27 15 12 0 12 -2
-1 -15z"/>
<path d="M443 213 c-36 -5 -41 -14 -18 -33 14 -12 64 -10 96 4 12 5 15 0 13
-26 -1 -26 0 -27 3 -5 2 15 11 27 19 27 8 0 14 6 14 13 0 11 -11 12 -47 6 -27
-4 -59 -8 -72 -8 -42 -1 -16 9 45 18 45 7 50 8 19 8 -22 0 -55 -2 -72 -4z"/>
<path d="M670 156 c0 -52 -1 -55 -27 -59 -26 -4 -26 -4 5 -6 l32 -1 0 60 c0
33 -2 60 -5 60 -3 0 -5 -24 -5 -54z"/>
<path d="M949 183 c-13 -16 -12 -17 4 -4 16 13 21 21 13 21 -2 0 -10 -8 -17
-17z"/>
<path d="M141 128 c-1 -23 -7 -46 -14 -50 -8 -5 -6 -8 6 -8 13 0 17 9 17 41 0
24 4 38 10 34 6 -3 10 -24 10 -46 0 -34 -3 -39 -22 -39 -13 0 -30 -5 -38 -10
-11 -7 -2 -10 33 -10 46 0 47 1 47 31 0 19 4 28 11 23 6 -3 -1 12 -16 35 -15
22 -31 41 -34 41 -4 0 -8 -19 -10 -42z"/>
<path d="M53 110 c0 -25 2 -35 4 -22 2 12 2 32 0 45 -2 12 -4 2 -4 -23z"/>
<path d="M550 116 c0 -29 -4 -36 -31 -45 -18 -6 -46 -10 -63 -10 -20 1 -24 3
-11 6 48 11 85 25 85 33 0 5 -12 2 -27 -6 -41 -21 -86 -17 -127 11 -21 14 -35
21 -31 16 11 -19 94 -69 124 -76 17 -4 47 -1 66 5 33 11 35 14 35 56 0 24 -4
44 -10 44 -5 0 -10 -15 -10 -34z"/>
<path d="M1180 126 c0 -13 -6 -27 -12 -29 -8 -3 -6 -6 5 -6 12 -1 17 7 17 29
0 17 -2 30 -5 30 -3 0 -5 -11 -5 -24z"/>
<path d="M230 80 c-11 -7 -5 -8 20 -4 43 8 51 14 19 14 -13 0 -31 -5 -39 -10z"/>
<path d="M1118 83 c7 -3 16 -2 19 1 4 3 -2 6 -13 5 -11 0 -14 -3 -6 -6z"/>
</g>
</svg>
